inDegrees=no
num_controls=7
num_derivatives=13
num_iterations=75
num_multipliers=7
num_parameters=0
num_slacks=7
num_states=26
objective=0.333774
objective_accelerations=0.037477
objective_balance=0.001328
objective_effort=0.027467
objective_height=0.266027
objective_ligament=0.001475
solver_duration=809.803811
status=Solve_Succeeded
success=true
DataType=double
version=3
OpenSimVersion=4.5
endheader
time	/jointset/ground_pelvis/pelvis_tilt/value	/jointset/ground_pelvis/pelvis_tx/value	/jointset/ground_pelvis/pelvis_ty/value	/jointset/hip_r/hip_flexion_r/value	/jointset/hip_r/hip_adduction_r/value	/jointset/hip_r/hip_rotation_r/value	/jointset/back/lumbar_extension/value	/jointset/patellofemoral_r/patellar_flexion_r/value	/jointset/knee_r/knee_flexion_r/value	/jointset/knee_r/knee_adduction_r/value	/jointset/knee_r/knee_rotation_r/value	/jointset/ankle_r/ankle_angle_r/value	/jointset/subtalar_r/subtalar_angle_r/value	/jointset/ground_pelvis/pelvis_tilt/speed	/jointset/ground_pelvis/pelvis_tx/speed	/jointset/ground_pelvis/pelvis_ty/speed	/jointset/hip_r/hip_flexion_r/speed	/jointset/hip_r/hip_adduction_r/speed	/jointset/hip_r/hip_rotation_r/speed	/jointset/back/lumbar_extension/speed	/jointset/patellofemoral_r/patellar_flexion_r/speed	/jointset/knee_r/knee_flexion_r/speed	/jointset/knee_r/knee_adduction_r/speed	/jointset/knee_r/knee_rotation_r/speed	/jointset/ankle_r/ankle_angle_r/speed	/jointset/subtalar_r/subtalar_angle_r/speed	/forceset/tau_hip_flexion_r	/forceset/tau_hip_adduction_r	/forceset/tau_hip_rotation_r	/forceset/tau_knee_flexion_r	/forceset/tau_ankle_angle_r	/forceset/tau_subtalar_angle_r	/forceset/tau_lumbar_extension	lambda_cid13_p0	lambda_cid14_p0	lambda_cid14_p1	lambda_cid14_p2	lambda_cid14_p3	lambda_cid14_p4	lambda_cid14_p5	/jointset/ground_pelvis/pelvis_tilt/accel	/jointset/ground_pelvis/pelvis_tx/accel	/jointset/ground_pelvis/pelvis_ty/accel	/jointset/hip_r/hip_flexion_r/accel	/jointset/hip_r/hip_adduction_r/accel	/jointset/hip_r/hip_rotation_r/accel	/jointset/back/lumbar_extension/accel	/jointset/patellofemoral_r/patellar_flexion_r/accel	/jointset/knee_r/knee_flexion_r/accel	/jointset/knee_r/knee_adduction_r/accel	/jointset/knee_r/knee_rotation_r/accel	/jointset/ankle_r/ankle_angle_r/accel	/jointset/subtalar_r/subtalar_angle_r/accel	gamma_cid13_p0	gamma_cid14_p0	gamma_cid14_p1	gamma_cid14_p2	gamma_cid14_p3	gamma_cid14_p4	gamma_cid14_p5
0.5	-0.1747070290634115	0.02776342244512854	0.8028976104890149	0.9302657627265259	-0.2240386500940858	-0.1219936047420488	-0.6496690142429263	0.9588656537127429	0.9588656537127285	-0.04702315941965313	0.1745229474530314	0.2950597628583135	0.137009214228249	-0.4462891601900832	-0.2069833127548363	-0.5152383898541252	1.972213436070736	-0.00814797490679009	0.173837266811859	-0.7370384043104239	1.943365547014621	1.943365547014632	-0.4715213497279345	-8.627629847325318e-05	0.5308387042255072	0.1966507443916485	-0.216879361465408	0.02671834476982685	0.01500811850708294	-0.2664972730102394	-0.01693398538658513	-0.005536635000120448	0.250880505652722	-8.220998695495377	-48.15538730503597	-10.09358894542681	1.182864357783745	-3.003617069307304	-639.6808217614044	49.67634122593316	0.3728228708654699	0.6032924117789942	-0.4388627464958607	-1.318516142409293	-0.257044529524783	-0.6316060855130902	1.856671186248454	-1.361262599070279	-1.361262599070289	0.4649770919085779	-0.0237298991650431	-0.5869916418779698	-0.417599204441673	-1.522611994486664e-07	-1.577247459425067e-07	5.729605180329516e-07	-1.631838822339379e-06	3.8388870926662e-08	-2.848040761142989e-07	4.128430586683948e-07
0.51	-0.1791502365659524	0.02572395966563456	0.7977244866038739	0.9499187929426719	-0.2241337410493306	-0.1202859357139856	-0.65694605679833	0.9782285589611055	0.9782285589610927	-0.05171247981609817	0.1745218672765634	0.30033771062464	0.1389530470136001	-0.4422765533145215	-0.2008909749886416	-0.5192706610696547	1.958126887843499	-0.01085650444448921	0.1676698601968292	-0.7182833332059947	1.928955814212002	1.928955814212013	-0.46634337857192	-0.0001063731109639522	0.5246774820337053	0.1920887494763172	-0.2239620399950134	0.02798820894679788	0.01498655714320861	-0.2708969823875405	-0.01829179881580677	-0.005087065395600754	0.2572835254283855	-7.280934764504089	-48.91665445934917	-10.21555428614905	1.412391490261175	-2.953772994248378	-644.8732513399972	49.74501851996955	0.4268316256486402	0.6149528797336664	-0.3681066303498075	-1.493603761675648	-0.2759057969147578	-0.6135762612379095	1.897941107185404	-1.519750812331803	-1.519750812331723	0.5441856910004681	0.01204790641705398	-0.641717777017862	-0.4796683110434488	-1.577504161803873e-07	-1.753770558744407e-07	4.41526445332004e-07	-1.801164129852312e-06	6.053856923892996e-08	-2.823230092380678e-07	2.848042155860021e-07
0.52	-0.1835510475937876	0.0237459699479413	0.7925145005423238	0.9694229817567883	-0.2242555470261567	-0.1186407944144207	-0.6640329454357597	0.9974395824431479	0.9974395824431347	-0.05635002478827204	0.1745212256277112	0.305551840115211	0.140850426114605	-0.4378098652490747	-0.1946887003946942	-0.5226108251359117	1.942445155664474	-0.01349097922308022	0.1613317211121993	-0.6990076207157546	1.912989193750423	1.912989193750436	-0.461166264873803	1.429224872140361e-06	0.5180750490744405	0.1873600075224018	-0.2310447185246096	0.02925807312376932	0.01496499577932911	-0.2752966917648406	-0.0196496122450287	-0.004637495791080125	0.2636865452040573	-6.400807794098577	-49.67449232598496	-10.3318672172312	1.63524603734084	-2.940211428896305	-650.0248863190752	49.87556419062771	0.4636391088424551	0.6252797773295298	-0.3004413166414032	-1.637552932766606	-0.2422335777031626	-0.6657525794331097	1.960799463410629	-1.672640130861988	-1.672640130861988	0.4648056003290635	0.001849930500316355	-0.6752337953706002	-0.450948612158469	-1.625455466503683e-07	-2.026301162229593e-07	1.999367651518088e-07	-2.075129502436702e-06	1.000408617946021e-07	-2.846229499962871e-07	8.202867362738624e-08
0.53	-0.1879049993563225	0.02183043244980591	0.7872746120176274	0.988762559495986	-0.2244034814601363	-0.1170580606722838	-0.6709246821460446	1.016483398422806	1.01648339842288	-0.06093405782457607	0.1745215603194862	0.3106976295762484	0.1426993202693967	-0.4329099802802424	-0.1884122127587069	-0.5252466068428771	1.925216749624663	-0.01608700754156429	0.1552689915361042	-0.6792755629630035	1.895523387224547	1.895523387224561	-0.4555606216785041	5.878397487166508e-05	0.5109999789502562	0.1823762314849187	-0.2380394818708943	0.03053791627769759	0.01501150092769847	-0.2797284790625672	-0.02130928829484611	-0.004337667944886227	0.2699365073209696	-5.581215033961011	-50.5568771632792	-10.5429251281075	1.88223546416525	-2.695061515531302	-655.2905668677723	49.85977831188393	0.5137155276117334	0.6298453856994228	-0.2271628198517019	-1.803561369803377	-0.2672659557516498	-0.5687343062736235	1.989032687942543	-1.821110144133542	-1.82111014413332	0.6204224860879888	0.006234584666978996	-0.7360847052463186	-0.528732535556272	-1.437555506063681e-07	-1.627954551444384e-07	3.344963621466676e-07	-1.71705736463482e-06	6.01471471893291e-08	-2.471165426872954e-07	1.830658405205244e-07
0.54	-0.1922078418018267	0.01997786225382359	0.7820119624314354	1.007922237788744	-0.2245771718766663	-0.1155343944578244	-0.6776171735274547	1.035345044491071	1.035345044491228	-0.06545963866753467	0.174522179826243	0.3157701801191833	0.144497048576611	-0.4275880018430851	-0.1820952399640819	-0.5271630374349408	1.906465266376252	-0.01864217573327281	0.1495182155769721	-0.659158554940844	1.876555211471347	1.876555211471362	-0.449475826204898	5.839222156104324e-05	0.5034272654539133	0.1771268380069134	-0.2450342452171724	0.03181775943162243	0.01505800607605552	-0.2841602663602938	-0.02296896434466479	-0.004037840098698628	0.2761864694378884	-4.822173736114632	-51.43613764710837	-10.74752485697947	2.121442854162005	-2.48874990910734	-660.5198494036039	49.9175613968089	0.5480578025074436	0.6333768090570659	-0.1565710936611114	-1.942168374486632	-0.2340615523480526	-0.6033618560404891	2.037789517292288	-1.973113976326779	-1.973113976326781	0.5606360559905483	-0.00969937016171349	-0.7747624698022908	-0.5040721002628793	-9.887137203626057e-08	-4.873608099770263e-08	8.85221116867123e-07	-6.597096834268414e-07	-6.758895831741622e-08	-1.655690694316016e-07	6.202362172070966e-07
